<svg xmlns="http://www.w3.org/2000/svg" viewBox="-45.0 -50.0 90.0 70.0" width="600" height="467" stroke="#1a1a1a" fill="none" stroke-width="0.4" stroke-linecap="round" stroke-linejoin="round">
  <path d="M -25.000 -29.500 L -25.000 -0.500"/>
  <path d="M -25.000 -29.500 L -25.000 -29.500"/>
  <path d="M -25.000 -6.000 L -25.000 -29.500"/>
  <path d="M -25.000 -6.000 L -25.000 -5.500"/>
  <path d="M -25.000 -5.500 L -25.000 -5.500"/>
  <path d="M -25.000 -0.500 L -25.000 -5.500"/>
  <path d="M -25.000 -0.500 L -25.000 -0.500"/>
  <path d="M -24.500 0.000 L 24.500 0.000"/>
  <path d="M 24.500 0.000 L 25.000 -0.500"/>
  <path d="M 25.000 -29.500 L 25.000 -0.500"/>
  <path d="M 24.500 -30.000 L 25.000 -29.500"/>
  <path d="M -24.500 -30.000 L 24.500 -30.000"/>
  <path d="M -25.000 -29.500 L -24.500 -30.000"/>
  <path d="M -25.000 -0.500 L -24.500 0.000"/>
  <path d="M 7.700 -18.000 A 3.300 3.300 0 1 0 14.300 -18.000 A 3.300 3.300 0 1 0 7.700 -18.000 Z"/>
  <path d="M -25.000 -29.500 L -24.500 -30.000"/>
  <path d="M -24.500 -30.000 L -24.500 -30.000"/>
  <path d="M -25.000 -0.500 L -24.500 0.000"/>
  <path d="M -24.500 0.000 L -24.500 0.000"/>
  <path d="M -25.000 -5.500 L -24.500 -6.000"/>
  <path d="M -24.500 -6.000 L 24.500 -6.000"/>
  <path d="M 24.500 -6.000 L 25.000 -5.500"/>
  <path d="M 25.000 -6.000 L 25.000 -5.500"/>
  <path d="M 25.000 -6.000 L 25.000 -29.500"/>
  <path d="M 24.500 -30.000 L 25.000 -29.500"/>
  <path d="M -24.500 -30.000 L 24.500 -30.000"/>
  <path d="M 7.700 -18.000 A 3.300 3.300 0 1 0 14.300 -18.000 A 3.300 3.300 0 1 0 7.700 -18.000 Z"/>
  <path d="M -24.500 0.000 L 24.500 0.000"/>
  <path d="M 24.500 0.000 L 25.000 -0.500"/>
  <path d="M 25.000 -0.500 L 25.000 -5.500"/>
  <path d="M 24.500 -6.000 L 25.000 -5.500"/>
  <path d="M -24.500 -6.000 L 24.500 -6.000"/>
  <path d="M -25.000 -5.500 L -24.500 -6.000"/>
  <path d="M -24.500 -6.000 L -24.500 -6.000"/>
  <path d="M 24.500 0.000 L 24.500 0.000"/>
  <path d="M 7.700 -0.000 A 3.300 3.300 0 1 0 14.300 -0.000 A 3.300 3.300 0 1 0 7.700 -0.000 Z"/>
  <path d="M 25.000 -0.500 L 25.000 -0.500"/>
  <path d="M 25.000 -29.500 L 25.000 -29.500"/>
  <path d="M 25.000 -5.500 L 25.000 -5.500"/>
  <path d="M 24.500 -30.000 L 24.500 -30.000"/>
  <path d="M 7.700 -18.000 L 7.700 -18.000"/>
  <path d="M 24.500 -6.000 L 24.500 -6.000"/>
  <path d="M 7.700 -6.000 A 3.300 3.300 0 1 0 14.300 -6.000 A 3.300 3.300 0 1 0 7.700 -6.000 Z"/>
  <path d="M 7.700 -0.000 L 7.700 -6.000"/>
</svg>

